PathFileType	4	(X/Y/Z)	/Users/itak/Documents/Research/Walk-IL/dataset/trc/00248_00009.trc
DataRate	CameraRate	NumFrames	NumMarkers	Units	OrigDataRate	OrigDataStartFrame	OrigNumFrames
100.000000	100.000000	4	53	mm	100.000000	135	543
Frame#	Time	RPSI			LPSI			L3			STRN			T10			C7			CLAV			RBAK			LBAK			LSHO			LUPA			LAEL			LAOL			LWTS			LWPS			LFRA			LHPS			LHTS			RSHO			RUPA			RAEL			RAOL			RWTS			RWPS			RFRA			RIFD			RHTS			RHPS			RBHD			LFHD			RFHD			LBHD			LHIP			RHIP			RASI			LASI			LKNE			LTHI			LANK			LTIP			LTOE			LMT1			LMT5			LHEE			RKNE			RTHI			RANK			RTIP			RTOE			RMT1			RMT5			RHEE			LIFD			
		X1	Y1	Z1	X2	Y2	Z2	X3	Y3	Z3	X4	Y4	Z4	X5	Y5	Z5	X6	Y6	Z6	X7	Y7	Z7	X8	Y8	Z8	X9	Y9	Z9	X10	Y10	Z10	X11	Y11	Z11	X12	Y12	Z12	X13	Y13	Z13	X14	Y14	Z14	X15	Y15	Z15	X16	Y16	Z16	X17	Y17	Z17	X18	Y18	Z18	X19	Y19	Z19	X20	Y20	Z20	X21	Y21	Z21	X22	Y22	Z22	X23	Y23	Z23	X24	Y24	Z24	X25	Y25	Z25	X26	Y26	Z26	X27	Y27	Z27	X28	Y28	Z28	X29	Y29	Z29	X30	Y30	Z30	X31	Y31	Z31	X32	Y32	Z32	X33	Y33	Z33	X34	Y34	Z34	X35	Y35	Z35	X36	Y36	Z36	X37	Y37	Z37	X38	Y38	Z38	X39	Y39	Z39	X40	Y40	Z40	X41	Y41	Z41	X42	Y42	Z42	X43	Y43	Z43	X44	Y44	Z44	X45	Y45	Z45	X46	Y46	Z46	X47	Y47	Z47	X48	Y48	Z48	X49	Y49	Z49	X50	Y50	Z50	X51	Y51	Z51	X52	Y52	Z52	X53	Y53	Z53	

136	1.35	-1504.312744140625	1055.066040039062	-359.0362548828125	-1491.6708984375	1061.672119140625	-478.6597595214844	-1500.926879882812	1133.561645507812	-437.2286682128906	-1254.508178710938	1318.983154296875	-417.0664978027344	-1505.599487304688	1260.267211914062	-432.96435546875	-1443.892822265625	1521.973388671875	-432.3199768066406	-1277.77197265625	1437.644287109375	-417.7669067382812	-1523.51513671875	1382.647583007812	-363.8043518066406	-1456.214599609375	1483.8564453125	-544.3399047851562	-1363.552978515625	1484.406372070312	-593.7738647460938	-1387.892456054688	1364.891357421875	-673.2157592773438	-1371.011352539062	1153.9150390625	-695.2398071289062	-1447.760375976562	1138.867431640625	-656.5306396484375	-1287.07177734375	921.4010009765625	-621.1270751953125	-1304.179565429688	902.4053344726562	-703.4874877929688	-1346.922729492188	1046.38671875	-703.9292602539062	-1286.135375976562	814.2025756835938	-695.6744384765625	-1250.464599609375	820.0274047851562	-636.5934448242188	-1399.609130859375	1483.083862304688	-257.3980712890625	-1423.1455078125	1418.7314453125	-191.3926544189453	-1448.765747070312	1136.275512695312	-156.8189544677734	-1475.764770507812	1132.099243164062	-248.0778198242188	-1311.873046875	920.2645874023438	-197.4527740478516	-1368.058471679688	905.3218383789062	-135.0506896972656	-1423.047485351562	1067.179565429688	-143.6851196289062	-1301.37451171875	726.9603881835938	-207.5528259277344	-1275.51708984375	798.069091796875	-183.1317138671875	-1329.403442382812	798.4027709960938	-133.9047088623047	-1409.392211914062	1677.939575195312	-396.2982788085938	-1191.188232421875	1718.560913085938	-446.4818420410156	-1213.339965820312	1721.321655273438	-349.3122253417969	-1336.372680664062	1680.184814453125	-515.5963745117188	-1380.581298828125	995.9009399414062	-609.24365234375	-1420.215942382812	1009.891235351562	-243.131591796875	-1317.971557617188	1049.775268554688	-271.9139099121094	-1283.08837890625	1032.383666992188	-550.6603393554688	-1367.63427734375	508.3978576660156	-568.753662109375	-1361.445922851562	652.369140625	-599.6234130859375	-1460.024291992188	39.07212066650391	-570.9615478515625	-1420.6796875	287.5016479492188	-581.6520385742188	-1254.716064453125	46.34435653686523	-485.7778015136719	-1329.31396484375	41.97822189331055	-452.1793212890625	-1331.501220703125	38.67266082763672	-570.1044921875	-1528.726928710938	45.13864898681641	-528.8828735351562	-1414.927612304688	515.4000244140625	-292.0563354492188	-1375.392822265625	781.3427124023438	-238.0768737792969	-1498.782348632812	40.94786834716797	-344.7300109863281	-1412.604614257812	400.6372680664062	-315.0097351074219	-1282.051147460938	47.04614639282227	-355.7220153808594	-1331.919921875	42.28720092773438	-406.0052185058594	-1392.572143554688	42.75271606445312	-303.1590576171875	-1551.567749023438	38.55559539794922	-412.0822143554688	-1280.791015625	724.8693237304688	-623.7467041015625	
137	1.36	-1503.953735351562	1054.877319335938	-358.1989440917969	-1491.400024414062	1061.583251953125	-477.8177490234375	-1500.612426757812	1133.620361328125	-436.3528747558594	-1253.774169921875	1318.78369140625	-416.3845520019531	-1505.113159179688	1260.359741210938	-432.0408325195312	-1443.0947265625	1521.986328125	-431.3720397949219	-1277.046997070312	1437.463256835938	-417.0927734375	-1522.820556640625	1382.729370117188	-362.8050842285156	-1455.630737304688	1483.915283203125	-543.3881225585938	-1363.041015625	1484.385131835938	-592.9520263671875	-1387.65185546875	1364.971435546875	-672.41552734375	-1371.107421875	1154.01171875	-694.6885986328125	-1447.834594726562	1138.999145507812	-655.7957763671875	-1287.428955078125	921.3814697265625	-621.0082397460938	-1304.338012695312	902.47705078125	-703.2275390625	-1347.160278320312	1046.482299804688	-703.5247802734375	-1286.405151367188	814.2756958007812	-695.5067138671875	-1250.475219726562	820.113037109375	-636.55322265625	-1398.653442382812	1482.9716796875	-256.5167846679688	-1422.132934570312	1418.612548828125	-190.5206451416016	-1447.904418945312	1136.141967773438	-156.0733642578125	-1475.0595703125	1132.036499023438	-247.2986297607422	-1311.227294921875	920.044189453125	-197.0401153564453	-1367.274169921875	905.1328735351562	-134.5721893310547	-1422.2197265625	1067.030029296875	-143.0455017089844	-1300.810913085938	726.7904052734375	-207.3281097412109	-1274.841064453125	797.9031982421875	-182.8010864257812	-1328.75341796875	798.1353149414062	-133.5535430908203	-1408.263916015625	1677.975708007812	-395.3485717773438	-1190.149780273438	1718.205078125	-445.8930053710938	-1212.0771484375	1720.957885742188	-348.68896484375	-1335.457275390625	1680.101806640625	-514.75537109375	-1380.372192382812	995.9660034179688	-608.5313720703125	-1419.73828125	1009.779846191406	-242.3212432861328	-1317.501586914062	1049.634399414062	-271.2251586914062	-1282.829711914062	1032.477905273438	-549.9617919921875	-1366.112915039062	508.4093933105469	-568.0770874023438	-1360.4794921875	652.4187622070312	-598.9974365234375	-1460.03466796875	39.06301879882812	-570.9871215820312	-1419.869018554688	287.4808654785156	-581.1773681640625	-1254.790649414062	46.41817855834961	-485.8581237792969	-1329.376586914062	41.98011016845703	-452.1961669921875	-1331.513671875	38.67943954467773	-570.095458984375	-1528.786376953125	45.14165115356445	-528.9065551757812	-1414.120971679688	515.3226318359375	-291.910888671875	-1374.756469726562	781.2070922851562	-237.4517822265625	-1498.776611328125	40.91802978515625	-344.6712341308594	-1412.090576171875	400.5137634277344	-314.7496337890625	-1282.099365234375	47.04020690917969	-355.746826171875	-1332.011352539062	42.33625411987305	-406.0075073242188	-1392.55810546875	42.76217269897461	-303.1681823730469	-1551.618041992188	38.541748046875	-412.0091857910156	-1280.7646484375	724.9288330078125	-623.614990234375	
138	1.37	-1503.567626953125	1054.66748046875	-357.3363037109375	-1491.124267578125	1061.469848632812	-476.9544982910156	-1500.288452148438	1133.682250976562	-435.4479675292969	-1252.980712890625	1318.593872070312	-415.6954040527344	-1504.619506835938	1260.455078125	-431.0860595703125	-1442.2626953125	1521.996459960938	-430.3984680175781	-1276.300903320312	1437.279052734375	-416.3983459472656	-1522.091430664062	1382.8115234375	-361.7691040039062	-1455.020385742188	1483.977416992188	-542.4056396484375	-1362.511962890625	1484.364990234375	-592.1050415039062	-1387.401489257812	1365.054809570312	-671.5928344726562	-1371.212768554688	1154.116333007812	-694.1224365234375	-1447.91162109375	1139.141723632812	-655.0426025390625	-1287.761474609375	921.3672485351562	-620.897216796875	-1304.530639648438	902.55224609375	-702.9688720703125	-1347.401611328125	1046.587280273438	-703.1040649414062	-1286.7060546875	814.355224609375	-695.3375854492188	-1250.458618164062	820.21435546875	-636.520751953125	-1397.649291992188	1482.859252929688	-255.6097717285156	-1421.081420898438	1418.493896484375	-189.6222381591797	-1447.0380859375	1136.011962890625	-155.3065032958984	-1474.346801757812	1131.982543945312	-246.4984588623047	-1310.527221679688	919.822021484375	-196.6241760253906	-1366.487426757812	904.9403686523438	-134.0883941650391	-1421.386352539062	1066.8828125	-142.3851776123047	-1300.255981445312	726.5956420898438	-207.1030578613281	-1274.150268554688	797.7490844726562	-182.4951934814453	-1328.080688476562	797.8584594726562	-133.2119445800781	-1407.101440429688	1678.005126953125	-394.3612976074219	-1189.080322265625	1717.835327148438	-445.28271484375	-1210.767211914062	1720.572631835938	-348.0495910644531	-1334.507202148438	1680.016967773438	-513.8866577148438	-1380.140747070312	996.0149536132812	-607.7950439453125	-1419.227661132812	1009.654113769531	-241.4906463623047	-1317.00927734375	1049.4775390625	-270.5183715820312	-1282.561157226562	1032.581665039062	-549.253173828125	-1364.351440429688	508.4102172851562	-567.3245849609375	-1359.356201171875	652.4484252929688	-598.3118896484375	-1460.04443359375	39.05202484130859	-571.0073852539062	-1418.911254882812	287.4444274902344	-580.6514892578125	-1254.8603515625	46.48439407348633	-485.93212890625	-1329.437744140625	41.98012542724609	-452.2119140625	-1331.527099609375	38.68508148193359	-570.0868530273438	-1528.82177734375	45.12875366210938	-528.9204711914062	-1413.243041992188	515.259521484375	-291.8276062011719	-1374.098022460938	781.0476684570312	-236.8305969238281	-1498.767456054688	40.87368392944336	-344.5983581542969	-1411.580932617188	400.3781433105469	-314.4794006347656	-1282.147216796875	47.02876281738281	-355.7683715820312	-1332.087036132812	42.37307357788086	-406.0169067382812	-1392.543579101562	42.77388763427734	-303.1773986816406	-1551.679443359375	38.51547241210938	-411.9267272949219	-1280.791015625	724.9857788085938	-623.49951171875	
139	1.38	-1503.156616210938	1054.437255859375	-356.4510803222656	-1490.84521484375	1061.327514648438	-476.0730285644531	-1499.94677734375	1133.745483398438	-434.5139465332031	-1252.123291015625	1318.414428710938	-415.0037231445312	-1504.118774414062	1260.549926757812	-430.1011962890625	-1441.399658203125	1522.000366210938	-429.40087890625	-1275.53564453125	1437.094360351562	-415.682861328125	-1521.323852539062	1382.891967773438	-360.6960144042969	-1454.383544921875	1484.0390625	-541.3926391601562	-1361.961059570312	1484.34375	-591.232666015625	-1387.142700195312	1365.135986328125	-670.748779296875	-1371.340454101562	1154.226196289062	-693.5441284179688	-1447.98828125	1139.293579101562	-654.2688598632812	-1288.051391601562	921.3553466796875	-620.78857421875	-1304.77001953125	902.6290893554688	-702.713134765625	-1347.648559570312	1046.697021484375	-702.6661376953125	-1287.0322265625	814.4384155273438	-695.1677856445312	-1250.447509765625	820.3141479492188	-636.494384765625	-1396.59716796875	1482.743286132812	-254.6783294677734	-1419.989990234375	1418.374755859375	-188.6982574462891	-1446.166137695312	1135.88427734375	-154.5147705078125	-1473.631469726562	1131.9365234375	-245.6743927001953	-1309.78564453125	919.6021728515625	-196.2107849121094	-1365.701782226562	904.742431640625	-133.6005096435547	-1420.544921875	1066.736206054688	-141.6989440917969	-1299.710815429688	726.3741455078125	-206.8767242431641	-1273.47119140625	797.5971069335938	-182.2235260009766	-1327.379272460938	797.5750122070312	-132.8766937255859	-1405.911743164062	1678.025268554688	-393.3395690917969	-1187.971557617188	1717.448974609375	-444.6514282226562	-1209.419555664062	1720.169555664062	-347.3900146484375	-1333.523071289062	1679.92724609375	-512.9921875	-1379.88671875	996.0402221679688	-607.0340576171875	-1418.700561523438	1009.510803222656	-240.6491546630859	-1316.501708984375	1049.307250976562	-269.7936401367188	-1282.293334960938	1032.688598632812	-548.5357055664062	-1362.328857421875	508.3973693847656	-566.4951782226562	-1358.065673828125	652.4508056640625	-597.56201171875	-1460.051513671875	39.040771484375	-571.021240234375	-1417.773193359375	287.38427734375	-580.0696411132812	-1254.922607421875	46.53691482543945	-485.99560546875	-1329.4931640625	41.97835540771484	-452.2257995605469	-1331.539672851562	38.68801879882812	-570.0792846679688	-1528.82470703125	45.10208129882812	-528.919921875	-1412.319946289062	515.2036743164062	-291.781982421875	-1373.407836914062	780.8703002929688	-236.2162475585938	-1498.755981445312	40.81501770019531	-344.512939453125	-1411.089233398438	400.2218322753906	-314.2007751464844	-1282.1962890625	47.01441192626953	-355.7862854003906	-1332.140258789062	42.3965950012207	-406.0382690429688	-1392.530395507812	42.7885856628418	-303.1886291503906	-1551.750244140625	38.47617340087891	-411.8392028808594	-1280.859008789062	725.0374145507812	-623.3955688476562	
